<svg width="20" height="20" viewBox="0 0 20 20" fill="none" xmlns="http://www.w3.org/2000/svg">
<path d="M5.83337 6.66667H10.8334" stroke="#2ECBE6" stroke-width="1.5" stroke-linejoin="round"/>
<path d="M5.83337 9.89128H10.8334" stroke="#2ECBE6" stroke-width="1.5" stroke-linejoin="round"/>
<path d="M5.83337 13.3835H8.33337" stroke="#2ECBE6" stroke-width="1.5" stroke-linejoin="round"/>
<path d="M15.8333 17.4997C16.7542 17.4997 17.5 16.7538 17.5 15.833V10.833C17.5 10.373 17.1267 9.99967 16.6667 9.99967H14.1667M15.8333 17.4997C14.9125 17.4997 14.1667 16.7538 14.1667 15.833V9.99967M15.8333 17.4997H4.16667C3.24583 17.4997 2.5 16.7538 2.5 15.833V4.16634C2.5 3.70634 2.87333 3.33301 3.33333 3.33301H13.3333C13.7933 3.33301 14.1667 3.70634 14.1667 4.16634L14.1667 9.99967" stroke="#2ECBE6" stroke-width="1.5" stroke-linejoin="round"/>
</svg>
