
<svg width="128" height="158" viewBox="0 0 128 158" fill="none" xmlns="http://www.w3.org/2000/svg">
<path opacity="0.25" fill-rule="evenodd" clip-rule="evenodd" d="M18.2919 104.008C17.0529 105.108 15.1508 105 14.1099 103.711C10.9143 99.7538 8.18324 95.4086 5.99917 90.7574C5.29493 89.2577 6.03028 87.5 7.5617 86.8676V86.8676C9.09313 86.2352 10.8401 86.968 11.5517 88.4642C13.468 92.493 15.8398 96.268 18.6021 99.7226C19.6368 101.017 19.5309 102.908 18.2919 104.008V104.008ZM2.60616 81.837C3.07646 83.4257 4.79407 84.2501 6.35863 83.7049V83.7049C7.92318 83.1596 8.74141 81.4511 8.27905 79.8601C6.7962 74.7574 6 69.359 6 63.7665C6 57.5892 6.97144 51.6479 8.76731 46.0799C9.2759 44.503 8.50782 42.7715 6.95983 42.1808V42.1808C5.41184 41.5902 3.67091 42.3642 3.15445 43.9385C1.10708 50.1794 0 56.8442 0 63.7665C0 70.0431 0.910161 76.1079 2.60616 81.837ZM6.94509 34.8468C6.19045 36.3218 6.86567 38.1035 8.37474 38.7875V38.7875C9.88382 39.4715 11.6547 38.7983 12.4166 37.327C17.9575 26.6278 26.761 17.8672 37.5161 12.3587C38.9908 11.6034 39.6713 9.83526 38.9936 8.32339V8.32339C38.3158 6.81151 36.5369 6.12901 35.0586 6.8771C22.9743 12.9921 13.0997 22.8169 6.94509 34.8468ZM44.1651 3.12158C42.5891 3.63293 41.8087 5.37095 42.3937 6.92109V6.92109C42.9788 8.47123 44.7075 9.24571 46.286 8.74209C51.8634 6.96258 57.8137 6 64 6C70.1863 6 76.1366 6.96258 81.714 8.74209C83.2925 9.24571 85.0212 8.47123 85.6063 6.92109V6.92109C86.1913 5.37095 85.4109 3.63293 83.8349 3.12158C77.5901 1.09534 70.9234 0 64 0C57.0766 0 50.4099 1.09534 44.1651 3.12158ZM92.9414 6.8771C91.4631 6.12901 89.6842 6.81151 89.0064 8.32339V8.32339C88.3287 9.83526 89.0092 11.6034 90.4839 12.3587C101.239 17.8672 110.043 26.6278 115.583 37.327C116.345 38.7983 118.116 39.4715 119.625 38.7875V38.7875C121.134 38.1035 121.81 36.3218 121.055 34.8468C114.9 22.8169 105.026 12.9921 92.9414 6.8771ZM124.846 43.9385C124.329 42.3642 122.588 41.5902 121.04 42.1808V42.1808C119.492 42.7715 118.724 44.503 119.233 46.0799C121.029 51.6479 122 57.5892 122 63.7665C122 69.2874 121.224 74.6191 119.778 79.6638C119.321 81.2565 120.145 82.962 121.712 83.5017V83.5017C123.278 84.0414 124.993 83.2108 125.458 81.6204C127.113 75.9551 128 69.9641 128 63.7665C128 56.8441 126.893 50.1794 124.846 43.9385ZM122.112 90.5188C122.81 89.0161 122.068 87.2615 120.534 86.6355V86.6355C119 86.0096 117.256 86.7496 116.55 88.2488C114.68 92.2236 112.367 95.9536 109.673 99.3753C108.649 100.677 108.769 102.568 110.016 103.658V103.658C111.264 104.749 113.165 104.626 114.196 103.329C117.314 99.407 119.979 95.1106 122.112 90.5188Z" fill="#662D91"/>
<path fill-rule="evenodd" clip-rule="evenodd" d="M18.2919 104.008C17.0529 105.108 15.1508 105 14.1099 103.711C10.9143 99.7538 8.18324 95.4086 5.99917 90.7574C5.29493 89.2577 6.03028 87.5 7.5617 86.8676V86.8676C9.09313 86.2352 10.8401 86.968 11.5517 88.4642C13.468 92.493 15.8398 96.268 18.6021 99.7226C19.6368 101.017 19.5309 102.908 18.2919 104.008V104.008ZM2.60616 81.837C3.07646 83.4257 4.79407 84.2501 6.35863 83.7049V83.7049C7.92318 83.1596 8.74141 81.4511 8.27905 79.8601C6.7962 74.7574 6 69.359 6 63.7665C6 57.5892 6.97144 51.6479 8.76731 46.0799C9.2759 44.503 8.50782 42.7715 6.95983 42.1808V42.1808C5.41184 41.5902 3.67091 42.3642 3.15445 43.9385C1.10708 50.1794 0 56.8442 0 63.7665C0 70.0431 0.910161 76.1079 2.60616 81.837ZM6.94509 34.8468C6.19045 36.3218 6.86567 38.1035 8.37474 38.7875V38.7875C9.88382 39.4715 11.6547 38.7983 12.4166 37.327C17.9575 26.6278 26.761 17.8672 37.5161 12.3587C38.9908 11.6034 39.6713 9.83526 38.9936 8.32339V8.32339C38.3158 6.81151 36.5369 6.12901 35.0586 6.8771C22.9743 12.9921 13.0997 22.8169 6.94509 34.8468ZM44.1651 3.12158C42.5891 3.63293 41.8087 5.37095 42.3937 6.92109V6.92109C42.9788 8.47123 44.7075 9.24571 46.286 8.74209C51.8634 6.96258 57.8137 6 64 6C70.1863 6 76.1366 6.96258 81.714 8.74209C83.2925 9.24571 85.0212 8.47123 85.6063 6.92109V6.92109C86.1913 5.37095 85.4109 3.63293 83.8349 3.12158C77.5901 1.09534 70.9234 0 64 0C57.0766 0 50.4099 1.09534 44.1651 3.12158ZM92.9414 6.8771C91.4631 6.12901 89.6842 6.81151 89.0064 8.32339V8.32339C88.3287 9.83526 89.0092 11.6034 90.4839 12.3587C101.239 17.8672 110.043 26.6278 115.583 37.327C116.345 38.7983 118.116 39.4715 119.625 38.7875V38.7875C121.134 38.1035 121.81 36.3218 121.055 34.8468C114.9 22.8169 105.026 12.9921 92.9414 6.8771ZM124.846 43.9385C124.329 42.3642 122.588 41.5902 121.04 42.1808V42.1808C119.492 42.7715 118.724 44.503 119.233 46.0799C121.029 51.6479 122 57.5892 122 63.7665C122 69.2874 121.224 74.6191 119.778 79.6638C119.321 81.2565 120.145 82.962 121.712 83.5017V83.5017C123.278 84.0414 124.993 83.2108 125.458 81.6204C127.113 75.9551 128 69.9641 128 63.7665C128 56.8441 126.893 50.1794 124.846 43.9385Z" fill="url(#paint0_linear_3910_23468)"/>
<path opacity="0.15" d="M64.3333 103.666C86.2406 103.666 104 85.907 104 63.9997C104 42.0924 86.2406 24.333 64.3333 24.333C42.426 24.333 24.6666 42.0924 24.6666 63.9997C24.6666 85.907 42.426 103.666 64.3333 103.666Z" fill="url(#paint1_linear_3910_23468)"/>
<g filter="url(#filter0_d_3910_23468)">
<path d="M84.3727 63.6574C84.3727 66.2521 83.8742 68.8467 82.977 71.142C80.7837 76.93 75.9985 81.4208 70.1166 83.3169C68.1227 84.0154 65.9294 84.3148 63.7362 84.3148C52.2715 84.4146 43 75.1337 43 63.6574C43 52.1811 52.2715 43 63.7362 43C75.1012 43 84.3727 52.2809 84.3727 63.6574Z" fill="white"/>
</g>
<path d="M69.7178 56.7714L67.4249 59.1664C67.4249 59.1664 66.1288 57.6695 64.135 57.6695C62.6396 57.6695 61.7423 58.5677 61.7423 59.5656C61.7423 62.8588 70.615 60.9627 70.615 67.3496C70.615 70.044 68.9203 72.2395 65.7301 72.8383V75.3331H62.4402V72.938C58.8512 72.4391 57.0568 70.1438 57.0568 70.1438L59.3497 67.8485C59.3497 67.8485 60.8451 69.7446 63.5368 69.7446C65.431 69.7446 66.5276 68.7467 66.5276 67.4494C66.5276 64.1562 57.6549 66.0522 57.6549 59.6654C57.6549 57.2704 59.4494 55.0749 62.3405 54.5759V52.0811H65.6304V54.5759C68.3221 55.0749 69.7178 56.7714 69.7178 56.7714Z" fill="url(#paint2_linear_3910_23468)"/>
<path d="M34.0116 137H35.7243V133.538H37.4694L39.3252 137H41.2364L39.1913 133.251C40.3039 132.804 40.8902 131.853 40.8902 130.569C40.8902 128.764 39.7268 127.545 37.5571 127.545H34.0116V137ZM35.7243 132.116V128.977H37.2939C38.5727 128.977 39.1452 129.563 39.1452 130.569C39.1452 131.576 38.5727 132.116 37.3032 132.116H35.7243ZM45.2781 138.182H46.2568L46.2615 137.125C48.2419 136.982 49.3776 135.892 49.3822 134.346C49.3776 132.707 48.0249 131.959 46.6031 131.622L46.2984 131.543L46.3169 128.907C47.0555 129.037 47.531 129.48 47.6048 130.145H49.2529C49.2252 128.676 48.0711 127.605 46.3261 127.439L46.3307 126.364H45.352L45.3474 127.439C43.6162 127.615 42.3698 128.676 42.3744 130.205C42.3744 131.562 43.3392 132.342 44.895 132.744L45.3105 132.85L45.292 135.643C44.4656 135.513 43.8701 135.043 43.8101 134.207H42.1251C42.1897 135.938 43.3808 136.968 45.2828 137.125L45.2781 138.182ZM46.2707 135.643L46.2892 133.108C47.1294 133.353 47.6649 133.676 47.6695 134.332C47.6649 135.015 47.1155 135.504 46.2707 135.643ZM45.3197 131.294C44.6826 131.091 44.1009 130.754 44.1102 130.098C44.1148 129.503 44.5626 129.041 45.3382 128.907L45.3197 131.294ZM54.1037 137.129C56.1026 137.129 57.4968 135.772 57.4968 133.893C57.4968 132.074 56.2319 130.763 54.5146 130.763C53.7482 130.763 53.0696 131.068 52.7188 131.483H52.6634L52.9357 128.977H57.0028V127.545H51.5185L51.0245 132.42L52.571 132.674C52.8896 132.324 53.4897 132.088 54.0575 132.093C55.0962 132.097 55.8441 132.864 55.8395 133.935C55.8441 134.992 55.1147 135.744 54.1037 135.744C53.2496 135.744 52.5618 135.204 52.5018 134.429H50.8398C50.886 135.998 52.2571 137.129 54.1037 137.129ZM62.538 137.18C64.8185 137.185 66.1804 135.384 66.1804 132.282C66.1804 129.198 64.8093 127.416 62.538 127.416C60.2667 127.416 58.9002 129.194 58.8956 132.282C58.8956 135.38 60.2575 137.18 62.538 137.18ZM62.538 135.735C61.3608 135.735 60.6222 134.553 60.6268 132.282C60.6314 130.029 61.3654 128.843 62.538 128.843C63.7152 128.843 64.4492 130.029 64.4538 132.282C64.4538 134.553 63.7198 135.735 62.538 135.735ZM68.394 137.102C68.9387 137.102 69.405 136.649 69.4096 136.086C69.405 135.532 68.9387 135.08 68.394 135.08C67.8308 135.08 67.3738 135.532 67.3784 136.086C67.3738 136.649 67.8308 137.102 68.394 137.102ZM74.2431 137.18C76.5236 137.185 77.8855 135.384 77.8855 132.282C77.8855 129.198 76.5144 127.416 74.2431 127.416C71.9718 127.416 70.6053 129.194 70.6007 132.282C70.6007 135.38 71.9625 137.18 74.2431 137.18ZM74.2431 135.735C73.0659 135.735 72.3272 134.553 72.3319 132.282C72.3365 130.029 73.0705 128.843 74.2431 128.843C75.4203 128.843 76.1543 130.029 76.1589 132.282C76.1589 134.553 75.4249 135.735 74.2431 135.735ZM82.914 137.18C85.1945 137.185 86.5564 135.384 86.5564 132.282C86.5564 129.198 85.1853 127.416 82.914 127.416C80.6427 127.416 79.2762 129.194 79.2716 132.282C79.2716 135.38 80.6334 137.18 82.914 137.18ZM82.914 135.735C81.7368 135.735 80.9981 134.553 81.0028 132.282C81.0074 130.029 81.7414 128.843 82.914 128.843C84.0912 128.843 84.8252 130.029 84.8298 132.282C84.8298 134.553 84.0958 135.735 82.914 135.735ZM91.5849 137.18C93.8654 137.185 95.2273 135.384 95.2273 132.282C95.2273 129.198 93.8562 127.416 91.5849 127.416C89.3136 127.416 87.9471 129.194 87.9425 132.282C87.9425 135.38 89.3043 137.18 91.5849 137.18ZM91.5849 135.735C90.4077 135.735 89.669 134.553 89.6737 132.282C89.6783 130.029 90.4123 128.843 91.5849 128.843C92.7621 128.843 93.4961 130.029 93.5007 132.282C93.5007 134.553 92.7667 135.735 91.5849 135.735Z" fill="#662D91"/>
<g opacity="0.5">
<path d="M41.8613 155L42.5215 153.027H45.5293L46.1934 155H47.7402L44.9199 147H43.1309L40.3145 155H41.8613ZM42.9121 151.863L43.9941 148.641H44.0566L45.1387 151.863H42.9121ZM50.1455 151.484C50.1455 150.617 50.6689 150.117 51.415 150.117C52.1455 150.117 52.583 150.598 52.583 151.398V155H53.9971V151.18C54.001 149.742 53.1807 148.922 51.9424 148.922C51.0439 148.922 50.4268 149.352 50.1533 150.02H50.083V149H48.7314V155H50.1455V151.484ZM58.4307 149H57.2471V147.562H55.833V149H54.9814V150.094H55.833V153.43C55.8252 154.559 56.6455 155.113 57.708 155.082C58.1104 155.07 58.3877 154.992 58.54 154.941L58.3018 153.836C58.2236 153.855 58.0635 153.891 57.8877 153.891C57.5322 153.891 57.2471 153.766 57.2471 153.195V150.094H58.4307V149ZM62.2051 155.117C63.6035 155.117 64.5645 154.434 64.8145 153.391L63.4941 153.242C63.3027 153.75 62.834 154.016 62.2246 154.016C61.3105 154.016 60.7051 153.414 60.6934 152.387H64.873V151.953C64.873 149.848 63.6074 148.922 62.1309 148.922C60.4121 148.922 59.291 150.184 59.291 152.035C59.291 153.918 60.3965 155.117 62.2051 155.117ZM60.6973 151.434C60.7402 150.668 61.3066 150.023 62.1504 150.023C62.9629 150.023 63.5098 150.617 63.5176 151.434H60.6973ZM68.6865 155.117C70.1943 155.117 71.1553 154.223 71.2568 152.949H69.9053C69.7842 153.594 69.3193 153.965 68.6982 153.965C67.8154 153.965 67.2451 153.227 67.2451 152C67.2451 150.789 67.8271 150.062 68.6982 150.062C69.3779 150.062 69.7959 150.5 69.9053 151.078H71.2568C71.1592 149.777 70.1436 148.922 68.6787 148.922C66.9209 148.922 65.8115 150.191 65.8115 152.023C65.8115 153.84 66.8936 155.117 68.6865 155.117ZM72.418 155H73.832V149H72.418V155ZM73.1289 148.148C73.5781 148.148 73.9453 147.805 73.9453 147.383C73.9453 146.957 73.5781 146.613 73.1289 146.613C72.6758 146.613 72.3086 146.957 72.3086 147.383C72.3086 147.805 72.6758 148.148 73.1289 148.148ZM75.2861 157.25H76.7002V154.055H76.7588C76.9814 154.492 77.4463 155.105 78.4775 155.105C79.8916 155.105 80.9502 153.984 80.9502 152.008C80.9502 150.008 79.8604 148.922 78.4736 148.922C77.415 148.922 76.9736 149.559 76.7588 149.992H76.6768V149H75.2861V157.25ZM76.6729 152C76.6729 150.836 77.1729 150.082 78.083 150.082C79.0244 150.082 79.5088 150.883 79.5088 152C79.5088 153.125 79.0166 153.945 78.083 153.945C77.1807 153.945 76.6729 153.164 76.6729 152ZM84.8174 155.117C86.2158 155.117 87.1768 154.434 87.4268 153.391L86.1064 153.242C85.915 153.75 85.4463 154.016 84.8369 154.016C83.9229 154.016 83.3174 153.414 83.3057 152.387H87.4854V151.953C87.4854 149.848 86.2197 148.922 84.7432 148.922C83.0244 148.922 81.9033 150.184 81.9033 152.035C81.9033 153.918 83.0088 155.117 84.8174 155.117ZM83.3096 151.434C83.3525 150.668 83.9189 150.023 84.7627 150.023C85.5752 150.023 86.1221 150.617 86.1299 151.434H83.3096Z" fill="#662D91"/>
<path d="M40.0449 157.211H87.9541V158.16H40.0449V157.211Z" fill="#662D91"/>
</g>
<defs>
<filter id="filter0_d_3910_23468" x="19" y="31" width="89.3727" height="89.3154" filterUnits="userSpaceOnUse" color-interpolation-filters="sRGB">
<feFlood flood-opacity="0" result="BackgroundImageFix"/>
<feColorMatrix in="SourceAlpha" type="matrix" values="0 0 0 0 0 0 0 0 0 0 0 0 0 0 0 0 0 0 127 0" result="hardAlpha"/>
<feOffset dy="12"/>
<feGaussianBlur stdDeviation="12"/>
<feComposite in2="hardAlpha" operator="out"/>
<feColorMatrix type="matrix" values="0 0 0 0 0.419608 0 0 0 0 0.533333 0 0 0 0 0.85098 0 0 0 0.4 0"/>
<feBlend mode="normal" in2="BackgroundImageFix" result="effect1_dropShadow_3910_23468"/>
<feBlend mode="normal" in="SourceGraphic" in2="effect1_dropShadow_3910_23468" result="shape"/>
</filter>
<linearGradient id="paint0_linear_3910_23468" x1="-19.968" y1="17.0357" x2="222.71" y2="17.6205" gradientUnits="userSpaceOnUse">
<stop stop-color="#9756C8"/>
<stop offset="1" stop-color="#00FFFF"/>
</linearGradient>
<linearGradient id="paint1_linear_3910_23468" x1="12.2906" y1="37.083" x2="153.219" y2="40.5839" gradientUnits="userSpaceOnUse">
<stop stop-color="#9756C8"/>
<stop offset="1" stop-color="#00FFFF"/>
</linearGradient>
<linearGradient id="paint2_linear_3910_23468" x1="54.9417" y1="55.818" x2="80.6472" y2="55.8479" gradientUnits="userSpaceOnUse">
<stop stop-color="#9756C8"/>
<stop offset="1" stop-color="#00FFFF"/>
</linearGradient>
</defs>
</svg>