
<svg width="21" height="20" viewBox="0 0 21 20" fill="none" xmlns="http://www.w3.org/2000/svg">
<path d="M10.2915 5.5V6.87504" stroke="white" stroke-width="1.15" stroke-linejoin="round"/>
<path d="M10.2915 14.5V13.125" stroke="white" stroke-width="1.15" stroke-linejoin="round"/>
<path d="M12.3641 8.33333C12.3099 7.52 11.6391 6.875 10.8124 6.875H9.67075C8.86242 6.875 8.20825 7.53 8.20825 8.3375C8.20825 9.00833 8.66492 9.59333 9.31492 9.75667L11.2674 10.2467C11.9183 10.41 12.3741 10.995 12.3741 11.6658C12.3741 12.4742 11.7191 13.1283 10.9116 13.1283H9.76992C8.94159 13.1283 8.27075 12.4817 8.21742 11.6667" stroke="white" stroke-width="1.5" stroke-linejoin="round"/>
<path opacity="0.5" d="M5.39165 4.89318C6.69915 3.58568 8.50582 2.77734 10.5017 2.77734C14.4925 2.77734 17.7283 6.01151 17.7283 10.0007C17.7283 10.5573 17.54 11.6182 17.54 11.6182M17.54 11.6182L15.4225 9.50151M17.54 11.6182L20.0342 9.50151M15.6083 15.1065C14.3008 16.414 12.4942 17.2223 10.4983 17.2223C6.50749 17.2223 3.27165 13.9882 3.27165 9.99901C3.27165 9.44234 3.34082 8.90234 3.45999 8.38151M3.45999 8.38151L5.57749 10.4982M3.45999 8.38151L0.96582 10.4982" stroke="white" stroke-width="1.5" stroke-linejoin="round"/>
</svg>